{"glyphs":{"0":{"ha":1040,"x_min":68,"x_max":972,"o":"m 521 1000 q 697 959 615 1000 q 840 848 779 918 q 937 685 901 778 q 972 486 972 592 q 936 285 972 379 q 839 122 900 192 q 696 13 778 53 q 521 -28 614 -28 q 344 13 426 -28 q 200 124 261 54 q 103 288 139 194 q 68 486 68 381 q 104 687 68 593 q 202 850 140 781 q 346 960 264 919 q 521 1000 428 1000 m 521 167 q 621 193 576 167 q 697 263 665 219 q 745 365 728 307 q 763 486 763 424 q 745 607 763 549 q 697 709 728 665 q 621 779 665 753 q 521 806 576 806 q 420 779 465 806 q 344 709 375 753 q 296 607 313 665 q 279 486 279 549 q 296 365 279 424 q 344 263 313 307 q 420 193 375 219 q 521 167 465 167 z "},"1":{"ha":583,"x_min":47,"x_max":488,"o":"m 488 0 l 279 0 l 279 746 l 122 671 l 47 828 l 301 972 l 488 972 l 488 0 z "},"2":{"ha":846,"x_min":54,"x_max":778,"o":"m 778 713 q 743 560 778 633 q 656 420 708 486 q 544 297 604 354 q 431 194 483 240 l 772 194 l 772 0 l 54 0 l 54 103 q 228 269 153 197 q 360 394 304 340 q 455 490 417 449 q 516 565 493 531 q 549 631 539 600 q 558 699 558 663 q 550 735 558 717 q 526 769 542 754 q 485 794 510 785 q 431 804 461 804 q 307 765 358 804 q 239 671 256 726 q 160 725 196 700 q 101 765 129 746 q 67 789 74 783 q 126 881 89 842 q 209 947 163 921 q 310 987 256 974 q 421 1000 364 1000 q 541 983 478 1000 q 657 931 604 967 q 744 842 710 896 q 778 713 778 788 z "},"3":{"ha":924,"x_min":47,"x_max":869,"o":"m 690 514 q 762 480 729 499 q 818 435 794 461 q 856 374 842 408 q 869 294 869 339 q 833 152 869 213 q 735 51 796 92 q 598 -8 675 11 q 439 -28 521 -28 q 318 -15 378 -28 q 206 26 258 -1 q 113 94 154 53 q 47 194 72 136 q 90 219 60 201 q 151 256 119 236 q 231 303 188 278 q 265 253 243 278 q 315 210 286 229 q 378 178 343 190 q 451 167 413 167 q 526 174 490 167 q 589 196 561 181 q 633 235 617 211 q 650 294 650 260 q 619 364 650 340 q 542 398 588 388 q 447 409 497 408 q 357 410 396 410 l 357 596 q 422 599 382 597 q 499 610 461 601 q 563 640 536 619 q 590 699 590 660 q 576 747 590 726 q 542 780 563 767 q 495 799 521 793 q 444 806 469 806 q 373 792 404 806 q 319 759 342 779 q 281 717 296 739 q 261 676 267 694 q 182 728 218 704 q 122 765 150 747 q 86 789 94 783 q 145 881 107 842 q 232 947 183 921 q 338 987 281 974 q 451 1000 394 1000 q 569 983 506 1000 q 685 933 632 967 q 774 849 739 900 q 810 731 810 799 q 777 605 810 664 q 690 514 744 546 z "},"4":{"ha":913,"x_min":54,"x_max":858,"o":"m 858 379 l 858 190 l 760 190 l 760 1 l 551 1 l 551 190 l 54 190 l 54 379 l 561 972 l 760 972 l 760 379 l 858 379 m 551 681 l 296 379 l 551 379 l 551 681 z "},"5":{"ha":886,"x_min":54,"x_max":818,"o":"m 418 -28 q 308 -15 361 -28 q 207 24 254 -3 q 120 93 160 51 q 54 193 81 135 q 96 218 65 200 q 158 256 126 236 q 238 303 194 278 q 267 256 250 281 q 308 213 285 232 q 359 180 331 193 q 421 167 388 167 q 483 177 451 167 q 540 207 514 188 q 581 256 565 226 q 597 321 597 285 q 582 388 597 358 q 542 438 567 418 q 485 469 517 458 q 421 479 453 479 q 324 454 371 479 q 253 388 278 429 l 82 499 l 158 972 l 753 972 l 753 778 l 338 778 l 321 667 q 364 672 339 669 q 446 674 389 674 q 585 651 518 674 q 705 585 653 629 q 788 474 757 540 q 818 321 818 408 q 786 179 818 243 q 700 69 754 115 q 573 -2 646 24 q 418 -28 500 -28 z "},"6":{"ha":936,"x_min":68,"x_max":882,"o":"m 731 765 q 674 779 704 776 q 628 782 644 782 q 485 756 544 782 q 387 695 425 731 q 329 620 349 660 q 306 554 310 581 q 412 615 344 590 q 554 639 479 639 q 681 618 621 639 q 785 556 740 597 q 856 456 829 515 q 882 322 882 397 q 853 187 882 250 q 773 76 825 124 q 649 0 721 28 q 490 -28 576 -28 q 306 6 385 -28 q 174 99 226 40 q 94 235 121 157 q 68 399 68 313 q 99 598 68 496 q 197 783 131 700 q 368 919 264 867 q 619 972 472 972 q 718 965 682 972 q 774 951 754 957 l 731 765 m 661 311 q 607 414 661 378 q 474 450 553 450 q 406 441 439 450 q 347 414 372 432 q 305 370 321 396 q 289 311 289 344 q 306 245 290 272 q 347 201 321 218 q 410 175 374 183 q 488 167 446 167 q 552 176 521 167 q 608 202 583 185 q 647 247 632 219 q 661 311 661 274 z "},"7":{"ha":796,"x_min":54,"x_max":749,"o":"m 749 790 l 315 0 l 74 0 l 511 776 l 54 776 l 54 972 l 749 972 l 749 790 z "},"8":{"ha":928,"x_min":54,"x_max":874,"o":"m 54 274 q 97 414 54 353 q 203 515 139 475 q 122 603 154 549 q 89 724 89 657 q 121 843 89 792 q 206 929 153 894 q 325 982 258 964 q 463 1000 392 1000 q 597 983 529 1000 q 718 931 664 965 q 806 845 772 897 q 839 724 839 793 q 809 607 839 660 q 726 515 779 554 q 829 416 789 475 q 874 274 869 357 q 839 144 874 200 q 747 50 804 89 q 616 -8 690 11 q 463 -28 542 -28 q 317 -9 390 -28 q 186 47 244 10 q 91 141 128 85 q 54 274 54 197 m 665 293 q 645 353 665 329 q 595 391 625 376 q 529 411 565 406 q 463 417 493 417 q 398 411 433 417 q 333 392 363 406 q 283 353 303 378 q 263 293 263 329 q 282 231 263 256 q 331 192 301 207 q 395 172 360 178 q 463 167 431 167 q 526 172 492 167 q 592 192 561 178 q 644 231 624 207 q 665 293 665 256 m 297 710 q 314 662 297 681 q 356 632 331 643 q 410 617 381 621 q 464 613 439 613 q 517 617 488 613 q 572 632 546 621 q 615 662 597 643 q 632 710 632 681 q 615 757 632 739 q 573 785 599 775 q 517 800 547 796 q 463 806 488 804 q 410 801 439 806 q 357 787 382 797 q 315 758 332 776 q 297 710 297 739 z "},"9":{"ha":936,"x_min":54,"x_max":868,"o":"m 204 207 q 261 193 232 196 q 307 190 290 190 q 451 216 392 190 q 549 277 510 242 q 607 351 588 313 q 631 418 626 390 q 523 358 590 382 q 381 333 456 333 q 255 354 314 333 q 151 416 196 375 q 81 516 107 457 q 54 650 54 575 q 83 785 54 722 q 163 897 111 849 q 287 972 215 944 q 444 1000 358 1000 q 629 966 550 1000 q 762 874 708 932 q 842 738 815 815 q 868 574 868 660 q 837 374 868 476 q 739 189 806 272 q 567 53 672 106 q 317 0 463 0 q 218 8 254 0 q 163 21 182 15 l 204 207 m 275 661 q 329 558 275 594 q 463 522 383 522 q 530 531 497 522 q 589 558 563 540 q 631 602 615 576 q 647 661 647 628 q 588 772 644 738 q 447 806 532 806 q 383 797 414 806 q 328 770 353 788 q 290 726 304 753 q 275 661 275 699 z "},"\u0000":{"ha":0,"x_min":0,"x_max":0,"o":""},"\r":{"ha":400,"x_min":0,"x_max":0,"o":""}," ":{"ha":400,"x_min":0,"x_max":0,"o":""},"H":{"ha":990,"x_min":96,"x_max":894,"o":"m 894 972 l 894 0 l 686 0 l 686 389 l 304 389 l 304 0 l 96 0 l 96 972 l 304 972 l 304 583 l 686 583 l 686 972 l 894 972 z "},"I":{"ha":400,"x_min":96,"x_max":304,"o":"m 304 0 l 96 0 l 96 972 l 304 972 l 304 0 z "},"J":{"ha":876,"x_min":47,"x_max":781,"o":"m 781 372 q 749 217 781 290 q 664 90 718 144 q 537 4 610 36 q 381 -28 464 -28 q 179 34 263 -28 q 47 196 96 96 l 229 303 q 285 216 250 250 q 381 182 319 182 q 455 197 419 182 q 516 238 490 213 q 557 299 542 264 q 572 372 572 333 l 572 972 l 781 972 l 781 372 z "},"K":{"ha":940,"x_min":96,"x_max":893,"o":"m 628 0 l 304 403 l 304 0 l 96 0 l 96 972 l 304 972 l 304 565 l 632 972 l 882 972 l 499 494 l 893 0 l 628 0 z "},"L":{"ha":764,"x_min":96,"x_max":717,"o":"m 717 194 l 717 0 l 96 0 l 96 972 l 301 972 l 301 194 l 717 194 z "},"M":{"ha":1175,"x_min":89,"x_max":1079,"o":"m 1079 972 l 1079 0 l 871 0 l 871 614 l 585 225 l 297 614 l 297 0 l 89 0 l 89 972 l 297 972 l 585 578 l 871 972 l 1079 972 z "},"N":{"ha":993,"x_min":89,"x_max":904,"o":"m 711 0 l 297 576 l 297 0 l 89 0 l 89 972 l 281 972 l 696 394 l 696 972 l 904 972 l 904 0 l 711 0 z "},"O":{"ha":1164,"x_min":68,"x_max":1096,"o":"m 582 1000 q 783 959 689 1000 q 946 848 876 918 q 1056 685 1015 778 q 1096 486 1096 592 q 1055 285 1096 379 q 944 122 1014 192 q 781 13 874 53 q 582 -28 688 -28 q 381 13 475 -28 q 218 124 288 54 q 108 288 149 194 q 68 486 68 381 q 109 687 68 593 q 219 850 150 781 q 383 960 289 919 q 582 1000 476 1000 m 582 165 q 700 192 644 165 q 797 263 756 218 q 863 365 839 307 q 886 486 886 424 q 863 607 886 549 q 797 709 839 665 q 700 779 756 753 q 582 806 644 806 q 464 779 519 806 q 367 709 408 753 q 301 607 325 665 q 278 486 278 549 q 301 365 278 424 q 367 263 325 307 q 464 192 408 218 q 582 165 519 165 z "},"P":{"ha":911,"x_min":96,"x_max":843,"o":"m 496 972 q 630 945 567 972 q 740 871 693 918 q 815 760 788 824 q 843 625 843 697 q 816 490 843 554 q 742 379 789 426 q 631 304 694 332 q 496 276 568 276 l 304 276 l 304 0 l 96 0 l 96 972 l 496 972 m 472 471 q 532 483 504 471 q 581 517 560 496 q 613 565 601 538 q 625 625 625 593 q 613 683 625 656 q 581 732 601 711 q 532 765 560 753 q 472 778 504 778 l 304 778 l 304 471 l 472 471 z "},"Q":{"ha":1175,"x_min":68,"x_max":1107,"o":"m 975 -99 l 824 31 q 709 -12 769 3 q 583 -28 649 -28 q 382 13 476 -28 q 218 124 288 54 q 108 288 149 194 q 68 486 68 381 q 109 687 68 593 q 220 850 150 781 q 384 960 290 919 q 583 1000 478 1000 q 784 959 690 1000 q 947 848 878 918 q 1057 685 1017 778 q 1097 486 1097 592 q 1067 310 1097 393 q 982 161 1036 228 l 1107 54 l 975 -99 m 583 165 q 619 168 601 165 q 654 175 638 171 l 528 283 l 658 438 l 825 296 q 871 385 854 336 q 888 486 888 433 q 864 607 888 549 q 799 709 840 665 q 701 779 757 753 q 583 806 646 806 q 465 779 521 806 q 368 709 410 753 q 303 607 326 665 q 279 486 279 549 q 303 365 279 424 q 368 263 326 307 q 465 192 410 218 q 583 165 521 165 z "},"R":{"ha":943,"x_min":96,"x_max":896,"o":"m 654 0 l 457 300 l 304 300 l 304 0 l 96 0 l 96 972 l 514 972 q 643 946 582 972 q 750 874 704 919 q 823 768 796 829 q 850 636 850 707 q 801 462 850 540 q 674 340 753 383 l 896 0 l 654 0 m 492 494 q 547 506 521 494 q 591 536 572 517 q 621 581 610 556 q 632 636 632 607 q 621 691 632 665 q 591 736 610 717 q 547 767 572 756 q 492 778 521 778 l 304 778 l 304 494 l 492 494 z "},"S":{"ha":917,"x_min":58,"x_max":858,"o":"m 858 268 q 824 128 858 185 q 733 38 790 72 q 603 -11 676 4 q 454 -26 531 -26 q 222 36 321 -26 q 58 194 122 99 l 242 303 q 280 252 257 276 q 331 209 303 228 q 391 178 358 190 q 457 167 424 167 q 518 170 485 167 q 581 184 551 174 q 629 213 610 194 q 649 261 649 231 q 633 306 649 288 q 589 338 617 324 q 524 361 561 351 q 443 381 486 371 q 324 412 386 393 q 209 464 261 431 q 123 551 157 497 q 89 688 89 604 q 119 823 89 764 q 200 921 150 882 q 314 980 250 960 q 444 1000 378 1000 q 663 941 567 1000 q 826 789 760 882 l 653 671 q 619 718 640 694 q 572 761 599 742 q 515 793 546 781 q 449 806 483 806 q 396 799 422 806 q 348 778 369 792 q 313 744 326 764 q 299 699 299 724 q 314 660 299 676 q 355 633 329 644 q 415 611 381 621 q 488 592 449 601 q 614 556 549 576 q 733 501 679 536 q 823 410 788 465 q 858 268 858 354 z "},"T":{"ha":868,"x_min":47,"x_max":821,"o":"m 821 778 l 539 778 l 539 0 l 331 0 l 331 778 l 47 778 l 47 972 l 821 972 l 821 778 z "},"U":{"ha":983,"x_min":96,"x_max":894,"o":"m 894 371 q 863 217 894 289 q 778 90 832 144 q 652 4 725 36 q 496 -28 579 -28 q 341 3 414 -28 q 214 88 268 35 q 128 215 160 142 q 96 371 96 288 l 96 972 l 304 972 l 304 372 q 319 295 304 332 q 360 229 335 258 q 421 183 386 200 q 496 165 456 165 q 569 183 535 165 q 631 229 604 200 q 672 295 657 258 q 686 372 686 332 l 686 972 l 894 972 l 894 371 z "},"V":{"ha":1022,"x_min":47,"x_max":975,"o":"m 975 972 l 642 0 l 379 0 l 47 972 l 275 972 l 511 253 l 746 972 l 975 972 z "},"W":{"ha":1460,"x_min":47,"x_max":1413,"o":"m 1413 972 l 1143 0 l 878 0 l 731 588 l 583 0 l 318 0 l 47 972 l 276 972 l 449 282 l 615 972 l 846 972 l 1013 282 l 1185 972 l 1413 972 z "},"X":{"ha":971,"x_min":47,"x_max":924,"o":"m 604 486 l 924 0 l 686 0 l 486 306 l 285 0 l 47 0 l 367 486 l 47 972 l 285 972 l 486 667 l 688 972 l 924 972 l 604 486 z "},"Y":{"ha":939,"x_min":47,"x_max":892,"o":"m 892 972 l 574 356 l 574 0 l 365 0 l 365 356 l 47 972 l 264 972 l 469 554 l 675 972 l 892 972 z "},"Z":{"ha":847,"x_min":54,"x_max":793,"o":"m 793 201 l 793 0 l 54 0 l 54 147 l 507 772 l 76 772 l 76 972 l 771 972 l 771 788 l 344 201 l 793 201 z "},"D":{"ha":1047,"x_min":96,"x_max":979,"o":"m 493 972 q 681 934 593 972 q 835 831 769 896 q 940 676 901 765 q 979 486 979 588 q 941 298 979 386 q 838 143 903 210 q 683 38 772 76 q 493 0 594 0 l 96 0 l 96 972 l 493 972 m 479 201 q 590 224 538 201 q 680 284 642 246 q 740 374 718 322 q 763 486 763 426 q 740 597 763 544 q 680 688 718 649 q 590 749 642 726 q 479 771 538 771 l 304 771 l 304 201 l 479 201 z "},"a":{"ha":925,"x_min":47,"x_max":846,"o":"m 846 707 l 846 0 l 638 0 l 638 56 q 540 -5 593 18 q 429 -28 488 -28 q 280 2 350 -28 q 158 84 210 32 q 77 206 107 136 q 47 353 47 275 q 78 502 47 432 q 160 624 108 572 q 282 705 213 675 q 429 735 351 735 q 540 712 488 735 q 638 653 593 689 l 638 707 l 846 707 m 451 160 q 526 175 490 160 q 588 216 561 190 q 629 277 614 242 q 644 353 644 313 q 629 428 644 393 q 588 490 614 464 q 526 531 561 515 q 451 546 490 546 q 376 531 411 546 q 315 490 340 515 q 274 428 289 464 q 258 353 258 393 q 274 277 258 313 q 315 216 289 242 q 376 175 340 190 q 451 160 411 160 z "},"b":{"ha":925,"x_min":79,"x_max":878,"o":"m 288 972 l 288 653 q 385 712 332 689 q 497 735 439 735 q 644 705 575 735 q 766 624 714 675 q 848 502 818 572 q 878 353 878 432 q 848 206 878 275 q 767 84 818 136 q 646 2 715 32 q 497 -28 576 -28 q 386 -5 439 -28 q 288 56 333 18 l 288 0 l 79 0 l 79 972 l 288 972 m 282 353 q 297 277 282 313 q 338 216 313 242 q 399 175 364 190 q 475 160 435 160 q 551 175 515 160 q 612 216 586 190 q 653 277 638 242 q 668 353 668 313 q 653 428 668 393 q 612 490 638 464 q 551 531 586 515 q 475 546 515 546 q 399 531 435 546 q 338 490 364 515 q 297 428 313 464 q 282 353 282 393 z "},"c":{"ha":815,"x_min":47,"x_max":774,"o":"m 774 125 q 629 13 721 54 q 429 -28 538 -28 q 283 2 353 -28 q 162 84 214 32 q 78 206 110 136 q 47 353 47 275 q 77 502 47 432 q 159 624 107 572 q 281 705 211 675 q 429 735 350 735 q 628 694 539 735 q 771 583 718 653 l 606 469 q 538 525 582 504 q 429 546 494 546 q 362 531 393 546 q 307 489 331 515 q 270 427 283 463 q 257 353 257 392 q 271 281 257 315 q 309 219 285 246 q 365 176 333 192 q 429 160 396 160 q 535 179 492 160 q 600 229 578 199 l 774 125 z "},"d":{"ha":925,"x_min":47,"x_max":846,"o":"m 846 972 l 846 0 l 638 0 l 638 56 q 539 -5 592 18 q 428 -28 486 -28 q 279 2 349 -28 q 158 84 210 32 q 77 206 107 136 q 47 353 47 275 q 77 502 47 432 q 159 624 107 572 q 281 705 211 675 q 428 735 350 735 q 540 712 486 735 q 638 653 593 689 l 638 972 l 846 972 m 450 160 q 526 175 490 160 q 587 216 561 190 q 628 277 613 242 q 643 353 643 313 q 628 428 643 393 q 587 490 613 464 q 526 531 561 515 q 450 546 490 546 q 374 531 410 546 q 313 490 339 515 q 272 428 288 464 q 257 353 257 393 q 272 277 257 313 q 313 216 288 242 q 374 175 339 190 q 450 160 410 160 z "},"e":{"ha":878,"x_min":47,"x_max":836,"o":"m 446 735 q 601 704 529 735 q 724 622 672 674 q 806 500 776 569 q 836 353 836 431 q 835 321 836 338 q 831 289 833 304 l 268 289 q 331 198 286 236 q 446 160 376 160 q 544 179 496 160 q 617 231 592 199 l 785 128 q 719 63 757 92 q 638 15 682 35 q 544 -17 593 -6 q 446 -28 496 -28 q 290 2 363 -28 q 163 84 217 32 q 78 206 110 136 q 47 353 47 275 q 79 502 47 432 q 165 624 111 572 q 292 705 219 675 q 446 735 364 735 m 446 546 q 340 513 383 546 q 274 432 296 479 l 618 432 q 553 513 597 479 q 446 546 508 546 z "},"f":{"ha":600,"x_min":38,"x_max":622,"o":"m 390 707 l 563 707 l 521 526 l 390 526 l 390 0 l 182 0 l 182 526 l 38 526 l 38 707 l 182 707 l 182 781 q 199 866 182 826 q 247 935 217 906 q 316 983 276 965 q 401 1000 356 1000 q 551 988 494 1000 q 622 972 607 976 l 581 782 q 547 800 572 789 q 467 811 521 811 q 413 790 435 811 q 390 738 390 768 l 390 707 z "},"g":{"ha":925,"x_min":47,"x_max":846,"o":"m 846 707 l 846 6 q 814 -143 846 -74 q 729 -264 782 -212 q 608 -345 676 -315 q 465 -375 539 -375 q 265 -335 356 -375 q 122 -225 175 -294 l 294 -107 q 358 -165 321 -143 q 465 -187 396 -187 q 530 -171 499 -187 q 585 -126 561 -154 q 624 -65 610 -99 q 639 6 639 -31 l 639 56 q 540 -5 593 18 q 429 -28 488 -28 q 280 2 350 -28 q 158 84 210 32 q 77 206 107 136 q 47 353 47 275 q 78 502 47 432 q 160 624 108 572 q 282 705 213 675 q 429 735 351 735 q 540 712 488 735 q 639 653 593 689 l 639 707 l 846 707 m 451 160 q 527 175 492 160 q 588 216 563 190 q 629 277 614 242 q 644 353 644 313 q 629 428 644 393 q 588 490 614 464 q 527 531 563 515 q 451 546 492 546 q 376 531 411 546 q 315 490 340 515 q 274 428 289 464 q 258 353 258 393 q 274 277 258 313 q 315 216 289 242 q 376 175 340 190 q 451 160 411 160 z "},"h":{"ha":869,"x_min":75,"x_max":799,"o":"m 499 735 q 615 711 561 735 q 710 647 669 688 q 775 551 751 606 q 799 435 799 497 l 799 0 l 590 0 l 590 394 q 578 453 590 425 q 544 501 565 481 q 496 534 524 522 q 438 546 468 546 q 378 533 406 546 q 329 500 350 521 q 296 451 308 479 q 283 392 283 424 l 283 0 l 75 0 l 75 972 l 283 972 l 283 626 q 380 705 326 675 q 499 735 433 735 z "},"i":{"ha":363,"x_min":56,"x_max":303,"o":"m 75 707 l 283 707 l 283 0 l 75 0 l 75 707 m 179 1028 q 267 992 231 1028 q 303 904 303 956 q 267 817 303 853 q 179 781 231 781 q 92 817 128 781 q 56 904 56 853 q 92 992 56 956 q 179 1028 128 1028 z "},"j":{"ha":365,"x_min":-157,"x_max":306,"o":"m 286 707 l 286 -61 q 263 -181 286 -124 q 194 -283 239 -239 q 92 -351 150 -328 q -29 -375 35 -375 q -95 -370 -62 -375 q -157 -354 -128 -365 l -114 -165 q -35 -186 -76 -186 q 46 -158 14 -186 q 78 -92 78 -131 l 78 707 l 286 707 m 182 1028 q 269 992 233 1028 q 306 904 306 956 q 269 817 306 853 q 182 781 233 781 q 94 817 131 781 q 58 904 58 853 q 94 992 58 956 q 182 1028 131 1028 z "},"k":{"ha":836,"x_min":75,"x_max":808,"o":"m 536 0 l 283 249 l 283 0 l 75 0 l 75 972 l 283 972 l 283 461 l 517 707 l 774 707 l 442 358 l 808 0 l 536 0 z "},"l":{"ha":354,"x_min":75,"x_max":283,"o":"m 283 972 l 283 0 l 75 0 l 75 972 l 283 972 z "},"m":{"ha":1293,"x_min":79,"x_max":1222,"o":"m 946 735 q 1053 711 1003 735 q 1142 647 1104 688 q 1201 551 1179 606 q 1222 435 1222 497 l 1222 0 l 1014 0 l 1014 394 q 1003 453 1014 425 q 976 501 993 481 q 935 534 958 522 q 885 546 911 546 q 835 533 858 546 q 794 500 811 521 q 766 451 776 479 q 756 392 756 424 l 756 0 l 547 0 l 547 394 q 537 453 547 425 q 509 501 526 481 q 468 534 492 522 q 418 546 444 546 q 368 533 392 546 q 327 500 344 521 q 299 451 310 479 q 289 392 289 424 l 289 0 l 79 0 l 79 707 l 289 707 l 289 631 q 369 706 325 678 q 471 735 413 735 q 601 706 546 735 q 690 628 656 676 q 792 704 731 674 q 946 735 853 735 z "},"n":{"ha":874,"x_min":79,"x_max":803,"o":"m 503 735 q 619 711 565 735 q 715 647 674 688 q 779 551 756 606 q 803 435 803 497 l 803 0 l 594 0 l 594 394 q 582 453 594 425 q 549 501 569 481 q 500 534 528 522 q 442 546 472 546 q 382 533 410 546 q 333 500 354 521 q 300 451 313 479 q 288 392 288 424 l 288 0 l 79 0 l 79 707 l 288 707 l 288 626 q 384 705 331 675 q 503 735 438 735 z "},"o":{"ha":915,"x_min":47,"x_max":868,"o":"m 458 -28 q 297 2 372 -28 q 167 84 222 32 q 79 206 111 136 q 47 353 47 275 q 80 502 47 432 q 169 624 113 572 q 299 705 225 675 q 458 735 374 735 q 618 704 543 735 q 749 622 693 674 q 836 500 804 569 q 868 353 868 431 q 835 204 868 274 q 747 83 803 135 q 617 2 692 32 q 458 -28 542 -28 m 458 546 q 376 529 413 546 q 313 485 339 513 q 273 422 288 457 q 258 353 258 388 q 272 283 258 317 q 310 221 285 249 q 374 176 336 193 q 458 160 411 160 q 542 176 506 160 q 605 221 579 193 q 644 283 631 249 q 658 353 658 317 q 644 422 658 388 q 603 485 629 457 q 541 529 578 513 q 458 546 504 546 z "},"p":{"ha":921,"x_min":75,"x_max":874,"o":"m 493 735 q 640 705 571 735 q 762 624 710 675 q 844 502 814 572 q 874 353 874 432 q 844 206 874 275 q 763 84 814 136 q 642 2 711 32 q 493 -28 572 -28 q 382 -5 435 -28 q 283 56 329 18 l 283 -347 l 75 -347 l 75 707 l 283 707 l 283 653 q 381 712 328 689 q 493 735 435 735 m 471 160 q 547 175 511 160 q 608 216 582 190 q 649 277 633 242 q 664 353 664 313 q 649 428 664 393 q 608 490 633 464 q 547 531 582 515 q 471 546 511 546 q 395 531 431 546 q 334 490 360 515 q 293 428 308 464 q 278 353 278 393 q 293 277 278 313 q 334 216 308 242 q 395 175 360 190 q 471 160 431 160 z "},"q":{"ha":925,"x_min":47,"x_max":846,"o":"m 846 707 l 846 -347 l 638 -347 l 638 56 q 540 -5 593 18 q 429 -28 488 -28 q 280 2 350 -28 q 158 84 210 32 q 77 206 107 136 q 47 353 47 275 q 78 502 47 432 q 160 624 108 572 q 282 705 213 675 q 429 735 351 735 q 540 712 488 735 q 638 653 593 689 l 638 707 l 846 707 m 450 161 q 526 176 490 161 q 587 217 561 192 q 628 278 613 243 q 643 353 643 313 q 628 428 643 393 q 587 490 613 464 q 526 531 561 515 q 450 546 490 546 q 375 531 410 546 q 315 490 340 515 q 274 428 289 464 q 258 353 258 393 q 274 278 258 313 q 315 217 289 243 q 375 176 340 192 q 450 161 410 161 z "},"r":{"ha":647,"x_min":79,"x_max":619,"o":"m 492 735 q 558 730 525 735 q 619 714 590 725 l 576 525 q 549 540 574 533 q 499 546 524 546 q 410 535 449 546 q 344 508 371 524 q 302 473 317 492 q 288 438 288 454 l 288 0 l 79 0 l 79 707 l 288 707 l 288 597 q 316 642 293 618 q 369 687 339 667 q 431 721 399 707 q 492 735 464 735 z "},"s":{"ha":781,"x_min":50,"x_max":719,"o":"m 415 446 q 521 417 467 433 q 619 372 575 400 q 691 303 663 344 q 719 201 719 263 q 688 92 719 136 q 607 22 656 49 q 499 -17 558 -6 q 385 -28 440 -28 q 192 22 276 -28 q 50 161 108 71 l 231 257 q 303 185 258 210 q 393 161 349 161 q 485 171 457 161 q 514 197 514 181 q 495 222 514 211 q 452 240 476 232 q 404 253 428 249 q 371 260 381 258 q 269 285 321 269 q 176 328 218 301 q 108 395 135 356 q 81 493 81 435 q 106 598 81 553 q 174 674 132 643 q 269 719 215 704 q 378 735 322 735 q 565 688 479 735 q 708 558 650 640 l 540 453 q 467 524 510 501 q 385 546 425 546 q 313 533 339 546 q 286 501 286 521 q 299 485 286 493 q 330 470 311 478 q 372 456 349 463 q 415 446 394 450 z "},"t":{"ha":639,"x_min":15,"x_max":603,"o":"m 603 -1 q 522 -20 572 -12 q 379 -28 471 -28 q 294 -10 333 -28 q 225 37 254 7 q 178 106 196 67 q 161 192 161 146 l 160 526 l 15 526 l 15 707 l 160 707 l 160 932 l 368 932 l 368 707 l 540 707 l 500 526 l 368 526 l 368 235 q 391 183 369 204 q 444 161 413 161 q 523 173 499 161 q 558 190 547 185 l 603 -1 z "},"u":{"ha":842,"x_min":71,"x_max":771,"o":"m 771 0 l 564 0 l 564 72 q 472 -1 522 26 q 361 -28 422 -28 q 247 -4 300 -28 q 156 60 194 19 q 94 156 117 101 q 71 272 71 210 l 71 707 l 279 707 l 279 313 q 290 253 279 281 q 321 206 301 226 q 366 173 340 185 q 421 161 392 161 q 476 173 450 161 q 522 206 501 185 q 553 255 542 226 q 564 315 564 283 l 564 707 l 771 707 l 771 0 z "},"v":{"ha":863,"x_min":28,"x_max":835,"o":"m 247 707 l 431 194 l 615 707 l 835 707 l 553 0 l 310 0 l 28 707 l 247 707 z "},"w":{"ha":1200,"x_min":28,"x_max":1172,"o":"m 1172 707 l 953 0 l 713 0 l 600 424 l 488 0 l 247 0 l 28 707 l 233 707 l 364 233 l 490 707 l 710 707 l 836 233 l 967 707 l 1172 707 z "},"x":{"ha":846,"x_min":28,"x_max":818,"o":"m 543 353 l 818 0 l 578 0 l 424 199 l 269 0 l 28 0 l 303 353 l 28 707 l 268 707 l 424 508 l 578 707 l 818 707 l 543 353 z "},"y":{"ha":863,"x_min":28,"x_max":835,"o":"m 503 -135 q 431 -257 469 -210 q 349 -330 393 -304 q 256 -365 306 -356 q 150 -375 206 -375 q 28 -356 86 -375 l 71 -165 q 110 -181 90 -176 q 150 -186 131 -186 l 150 -187 q 200 -183 176 -187 q 244 -167 224 -179 q 283 -133 265 -156 q 318 -74 301 -111 l 347 0 l 306 0 l 28 707 l 247 707 l 431 224 l 615 707 l 835 707 l 503 -135 z "},"z":{"ha":779,"x_min":53,"x_max":715,"o":"m 715 188 l 715 0 l 53 0 l 53 97 l 394 519 l 72 519 l 72 707 l 696 707 l 696 588 l 372 188 l 715 188 z "},".":{"ha":404,"x_min":79,"x_max":325,"o":"m 201 -28 q 115 8 150 -28 q 79 96 79 44 q 115 183 79 147 q 201 219 150 219 q 289 183 253 219 q 325 96 325 147 q 289 8 325 44 q 201 -28 253 -28 z "},",":{"ha":404,"x_min":79,"x_max":325,"o":"m 325 101 q 288 1 325 47 q 178 -103 250 -44 l 125 -50 q 154 -26 139 -39 q 171 -1 169 -12 q 104 34 129 6 q 79 99 79 63 q 88 143 79 121 q 114 182 97 165 q 153 209 131 199 q 203 219 175 219 q 250 209 228 219 q 289 182 272 199 q 315 144 306 165 q 325 101 325 124 z "},"B":{"ha":913,"x_min":96,"x_max":858,"o":"m 758 515 q 831 417 803 471 q 858 293 858 363 q 837 184 858 235 q 778 94 815 133 q 691 31 742 56 q 582 0 640 6 l 96 0 l 96 972 l 532 972 q 638 944 588 968 q 726 881 688 919 q 786 790 764 842 q 808 679 808 739 q 758 515 808 593 m 547 194 q 617 223 588 194 q 647 293 647 251 q 618 363 647 333 q 547 393 589 392 l 301 393 l 301 194 l 547 194 m 301 581 l 499 581 q 568 609 539 581 q 597 679 597 638 q 569 748 597 719 q 499 778 540 776 l 301 778 l 301 581 z "},"C":{"ha":1038,"x_min":68,"x_max":983,"o":"m 983 194 q 809 33 911 94 q 582 -28 707 -28 q 383 13 476 -28 q 220 122 290 53 q 109 285 150 192 q 68 486 68 379 q 108 685 68 592 q 218 848 149 778 q 381 959 288 918 q 582 1000 475 1000 q 803 944 706 1000 q 974 789 900 889 l 800 671 q 763 722 783 697 q 715 765 742 746 q 656 794 689 783 q 582 806 622 806 q 464 779 519 806 q 367 709 408 753 q 301 607 325 665 q 278 486 278 549 q 301 365 278 424 q 367 263 325 307 q 464 193 408 219 q 582 167 519 167 q 709 205 654 167 q 800 303 764 243 l 983 194 z "},"A":{"ha":1014,"x_min":47,"x_max":967,"o":"m 689 164 l 325 164 l 272 0 l 47 0 l 381 972 l 635 972 l 967 0 l 743 0 l 689 164 m 625 358 l 507 719 l 389 358 l 625 358 z "},"E":{"ha":765,"x_min":96,"x_max":711,"o":"m 711 194 l 711 0 l 96 0 l 96 972 l 703 972 l 703 778 l 301 778 l 301 583 l 603 583 l 603 389 l 301 389 l 301 194 l 711 194 z "},"F":{"ha":775,"x_min":96,"x_max":721,"o":"m 301 778 l 301 557 l 619 557 l 619 356 l 301 356 l 301 0 l 96 0 l 96 972 l 721 972 l 721 778 l 301 778 z "},"G":{"ha":1161,"x_min":68,"x_max":1085,"o":"m 1083 525 q 1085 506 1085 515 q 1085 486 1085 496 q 1047 288 1085 381 q 941 124 1008 194 q 782 13 874 54 q 583 -28 690 -28 q 384 13 478 -28 q 220 122 290 53 q 109 285 150 192 q 68 486 68 379 q 108 685 68 592 q 218 848 149 778 q 382 959 288 918 q 583 1000 476 1000 q 805 944 707 1000 q 975 789 903 889 l 806 674 q 766 722 789 699 q 715 765 743 746 q 653 794 686 783 q 583 806 619 806 q 465 779 521 806 q 368 709 410 753 q 303 607 326 665 q 279 486 279 549 q 303 365 279 424 q 368 263 326 307 q 465 193 410 219 q 583 167 521 167 q 740 216 672 167 q 843 343 808 265 l 583 343 l 583 525 l 1083 525 z "}}}
